PathFileType	4	(X/Y/Z)	OpenSim_Sub03_EMGStiffKnee_Magnet.trc
DataRate	CameraRate	NumFrames	NumMarkers	Units	OrigDataRate	OrigDataStartFrame	OrigNumFrames
100	100	33	8	m	100	2849	7597
Frame#	Time	torso_imu_offset_imu	pelvis_imu_offset_imu	tibia_r_imu_offset_imu	femur_r_imu_offset_imu	tibia_l_imu_offset_imu	femur_l_imu_offset_imu	toes_r_imu_offset_imu	toes_l_imu_offset_imu
				X1	Y1	Z1	X2	Y2	Z2	X3	Y3	Z3	X4	Y4	Z4	X5	Y5	Z5	X6	Y6	Z6	X7	Y7	Z7	X8		Y8	Z8	

2849	28.48000000	-0.89066835	-0.11949959	0.29006764	-0.68923061	0.04242249	-0.65317077	-0.52950968	-0.63340005	-0.00141987	-0.64818684	-0.51347454	0.12372710	-0.75579390	0.25322067	0.10118683	-0.78860476	0.20112592	0.22278752	-0.68803487	-0.22795947	-0.34755627	-0.62855069	-0.18516081	-0.46443752
2850	28.49000000	-0.89071790	-0.12293408	0.29024182	-0.68548639	0.04144902	-0.65212485	-0.52412787	-0.63522815	0.00322486	-0.64695001	-0.51992366	0.12105190	-0.76123603	0.23798349	0.10642459	-0.78579010	0.20266714	0.22940080	-0.68478412	-0.22722085	-0.34107779	-0.61630636	-0.20096594	-0.47371851
2851	28.50000000	-0.88458754	-0.12917028	0.28725932	-0.68861598	0.03927215	-0.64659097	-0.51562013	-0.63694669	0.00559556	-0.65143799	-0.51941380	0.12261460	-0.76833275	0.22209063	0.10983424	-0.78690466	0.19901736	0.23662899	-0.68318064	-0.23189607	-0.34297362	-0.60963323	-0.20339521	-0.48723210
2852	28.51000000	-0.88521828	-0.13266636	0.28407580	-0.69512483	0.03775275	-0.64947017	-0.50594481	-0.64668083	0.00251377	-0.64272190	-0.52673998	0.12469873	-0.76944995	0.20524729	0.10918695	-0.79159041	0.19632497	0.23253253	-0.68483926	-0.23769415	-0.34146798	-0.59462647	-0.20749522	-0.48653147
2853	28.52000000	-0.88644146	-0.13273235	0.28334650	-0.69238044	0.03688747	-0.64806287	-0.49705868	-0.65242794	0.00096311	-0.63970317	-0.52669391	0.12353574	-0.77061086	0.19320481	0.10332222	-0.78572195	0.19228477	0.23500805	-0.68719796	-0.24770569	-0.33814051	-0.59046058	-0.21300070	-0.49554385
2854	28.53000000	-0.88412556	-0.13397743	0.28558115	-0.69107845	0.04468029	-0.64168414	-0.49111593	-0.65886411	-0.00308809	-0.63660596	-0.53128848	0.12315265	-0.77133695	0.18445006	0.10362094	-0.78576101	0.19086708	0.23979584	-0.68548236	-0.25175473	-0.33518557	-0.58558721	-0.21645280	-0.50453658
2855	28.54000000	-0.88510901	-0.13819043	0.28595964	-0.69200738	0.04312468	-0.63327004	-0.47715135	-0.67084741	-0.00450266	-0.63624449	-0.52964532	0.12084764	-0.77048093	0.18631137	0.10330837	-0.78352426	0.19058401	0.24040543	-0.68649919	-0.25622536	-0.32875659	-0.58418582	-0.21276500	-0.50312754
2856	28.55000000	-0.88581716	-0.14013369	0.28739607	-0.69992153	0.04601947	-0.63601383	-0.46984696	-0.68138002	-0.00087288	-0.63020937	-0.53222002	0.12316876	-0.77355954	0.18986665	0.09979726	-0.78119078	0.18230481	0.23770295	-0.68651964	-0.26322205	-0.32471334	-0.57965096	-0.21396523	-0.50042371
2857	28.56000000	-0.88593793	-0.14758686	0.27851728	-0.70254424	0.05019363	-0.63343061	-0.46206850	-0.68356937	-0.00666076	-0.63393747	-0.53810205	0.11826092	-0.76839688	0.19132201	0.10276481	-0.78352952	0.18085731	0.24245066	-0.69153484	-0.26711290	-0.31478234	-0.58711306	-0.20849527	-0.49989241
2858	28.57000000	-0.88318185	-0.15146020	0.27506829	-0.70338979	0.05208353	-0.62447813	-0.44995528	-0.69247066	-0.01643367	-0.63159700	-0.54000344	0.11774727	-0.76770125	0.19669619	0.10436175	-0.78282514	0.17400205	0.24499873	-0.69236348	-0.27501929	-0.31127214	-0.59595550	-0.19950928	-0.49855850
2859	28.58000000	-0.88721957	-0.15484654	0.27463972	-0.70786048	0.06289692	-0.62460013	-0.44305885	-0.69682371	-0.02211658	-0.62699826	-0.54368937	0.11922943	-0.77024292	0.20474989	0.10183117	-0.77773469	0.17151802	0.24463413	-0.68824975	-0.27840281	-0.30114437	-0.60654079	-0.18630847	-0.48193690
2860	28.59000000	-0.88090918	-0.15872453	0.27117360	-0.71141379	0.06289540	-0.61544434	-0.43269192	-0.70158940	-0.02393548	-0.62524696	-0.54735828	0.11959667	-0.76515351	0.21588095	0.10028037	-0.77962317	0.16844170	0.24423217	-0.69443490	-0.28417805	-0.29544656	-0.62788591	-0.17146197	-0.46349214
2861	28.60000000	-0.88102465	-0.16660250	0.26375721	-0.70884245	0.06995171	-0.61010697	-0.41819076	-0.70643747	-0.02956339	-0.62304673	-0.55459341	0.11579949	-0.75853551	0.22300370	0.10300824	-0.78344712	0.16893848	0.24771835	-0.69835535	-0.29423825	-0.29233709	-0.64836578	-0.16419589	-0.43801753
2862	28.61000000	-0.88332011	-0.17014806	0.25639972	-0.70492072	0.07534888	-0.60846725	-0.41340742	-0.71313674	-0.03344345	-0.61982064	-0.55106631	0.11584521	-0.75168732	0.23443273	0.10848043	-0.78278727	0.18093100	0.24889748	-0.70159743	-0.29500602	-0.27737461	-0.66176960	-0.15375210	-0.40723850
2863	28.62000000	-0.88237115	-0.17549765	0.26206906	-0.70982867	0.07702471	-0.60818564	-0.39800263	-0.72332550	-0.03286688	-0.61568959	-0.54950421	0.10598812	-0.74986666	0.24535678	0.11571786	-0.77847501	0.19046869	0.23737835	-0.70429088	-0.30370825	-0.26454505	-0.67205365	-0.13742047	-0.38557643
2864	28.63000000	-0.88378947	-0.17859923	0.25936833	-0.71240497	0.07604608	-0.60471832	-0.38223326	-0.73334263	-0.03524634	-0.62228854	-0.55461319	0.10495359	-0.75218307	0.25057816	0.11576337	-0.77775853	0.19199552	0.23903683	-0.70639048	-0.31529191	-0.25291286	-0.68959642	-0.11782730	-0.37454126
2865	28.64000000	-0.88538732	-0.18412054	0.25551554	-0.70964647	0.07550686	-0.60238320	-0.37099542	-0.73463361	-0.04237829	-0.62472264	-0.55445691	0.10202689	-0.75218930	0.25455493	0.12577999	-0.77640873	0.20040732	0.23285752	-0.71641276	-0.31574272	-0.22896944	-0.69051910	-0.10067258	-0.36919035
2866	28.65000000	-0.87785590	-0.18608922	0.25212798	-0.71191945	0.07310609	-0.60625405	-0.35318872	-0.73992405	-0.04416609	-0.62717593	-0.54933369	0.10464053	-0.74451242	0.26142226	0.13461064	-0.77592281	0.19910582	0.23590462	-0.72018943	-0.32583771	-0.21152735	-0.69161551	-0.08962789	-0.36646491
2867	28.66000000	-0.87642279	-0.18514949	0.24896352	-0.71711509	0.06478923	-0.59741390	-0.33549758	-0.75060639	-0.04162609	-0.63288932	-0.54105048	0.10053831	-0.73864584	0.27567319	0.13967958	-0.77277158	0.19950738	0.24622840	-0.72524150	-0.34168945	-0.18169931	-0.69747072	-0.08650481	-0.36476597
2868	28.67000000	-0.88028255	-0.18810855	0.24724190	-0.71736473	0.06113099	-0.60134229	-0.31689780	-0.75916774	-0.03881503	-0.64292431	-0.53500880	0.09737114	-0.73534115	0.28926370	0.13413332	-0.76898369	0.19661698	0.25559639	-0.72588677	-0.35356139	-0.15619889	-0.70022566	-0.08359682	-0.36020822
2869	28.68000000	-0.87529204	-0.19494196	0.24421886	-0.72137575	0.05808823	-0.59593164	-0.30023368	-0.76965970	-0.03816407	-0.65074903	-0.52407172	0.09717236	-0.72951135	0.30573065	0.13430224	-0.77107275	0.19897622	0.25965425	-0.72081304	-0.37182402	-0.12259679	-0.70162432	-0.08851265	-0.35906261
2870	28.69000000	-0.87219123	-0.19630661	0.24883935	-0.71846898	0.06350128	-0.59613328	-0.28816040	-0.77432086	-0.03592562	-0.65829981	-0.51395217	0.08681418	-0.72396182	0.32024087	0.13590760	-0.76806866	0.19784490	0.26170533	-0.71818171	-0.39362355	-0.08835140	-0.70649802	-0.09045524	-0.35769903
2871	28.70000000	-0.87804440	-0.19881766	0.24229555	-0.72223515	0.06129427	-0.59749226	-0.27008982	-0.77528505	-0.03658143	-0.66752147	-0.50770504	0.07728710	-0.72392815	0.32171087	0.13453167	-0.76788797	0.20533719	0.26130465	-0.71150031	-0.41933230	-0.05685019	-0.70532962	-0.09223398	-0.35564022
2872	28.71000000	-0.87994911	-0.20369915	0.24345252	-0.72340993	0.06606091	-0.59089007	-0.25727284	-0.78072645	-0.02687450	-0.67363144	-0.50000476	0.06298335	-0.71859425	0.32775999	0.13959622	-0.77284023	0.21349993	0.25538087	-0.70031460	-0.43434338	-0.02852126	-0.70706471	-0.08962684	-0.35127555
2873	28.72000000	-0.87812017	-0.20578375	0.24204642	-0.72204197	0.07085078	-0.58762807	-0.24393428	-0.78603750	-0.02462618	-0.68591517	-0.48140417	0.05962760	-0.71745692	0.33577623	0.14298171	-0.76307830	0.23353856	0.24906531	-0.69141644	-0.46131554	0.00085275	-0.70345517	-0.08730704	-0.34971894
2874	28.73000000	-0.87390265	-0.21055070	0.24049196	-0.72294033	0.07335643	-0.59670767	-0.23093287	-0.78803064	-0.01514408	-0.69353004	-0.47479788	0.05015632	-0.71268209	0.34162428	0.14462968	-0.75750151	0.24267539	0.24937447	-0.66628578	-0.48225281	0.02718205	-0.70789348	-0.09158077	-0.35056190
2875	28.74000000	-0.87252800	-0.20662123	0.23908848	-0.71932897	0.08098372	-0.59568321	-0.21540974	-0.79192715	-0.01775352	-0.70550415	-0.45897084	0.03677572	-0.70999883	0.35057867	0.14486653	-0.75450498	0.25230302	0.25260170	-0.65133495	-0.49833292	0.05256113	-0.70647139	-0.09149261	-0.34711397
2876	28.75000000	-0.87386971	-0.20382466	0.23800082	-0.71979847	0.08904911	-0.59595150	-0.21020909	-0.79323852	-0.02746618	-0.71179824	-0.44195937	0.03506630	-0.71344742	0.35473710	0.14494278	-0.75347839	0.26479704	0.25078683	-0.64581580	-0.50824612	0.04796778	-0.70731829	-0.08821742	-0.34374646
2877	28.76000000	-0.86876110	-0.20721499	0.23874388	-0.72039818	0.08806718	-0.59640617	-0.19433665	-0.79282069	-0.04129821	-0.72227553	-0.43694054	0.02984151	-0.70896896	0.35622070	0.14223401	-0.75417403	0.27390540	0.25157648	-0.63864805	-0.52041960	0.02964684	-0.71341945	-0.08999314	-0.34370369
2878	28.77000000	-0.87522865	-0.21248146	0.23690380	-0.71138708	0.09217292	-0.60062214	-0.19818192	-0.79329274	-0.06717748	-0.73006985	-0.43144838	0.02516882	-0.70291036	0.36024497	0.14525638	-0.75352614	0.28107316	0.25297035	-0.63323558	-0.53187681	0.02643653	-0.71128238	-0.09007649	-0.34178053
2879	28.78000000	-0.87336674	-0.21150373	0.23625120	-0.71516878	0.09596149	-0.59864641	-0.19875902	-0.79106845	-0.08858845	-0.73145376	-0.42469857	0.02468625	-0.70346713	0.36438186	0.14471143	-0.74601473	0.28676704	0.25029154	-0.61965434	-0.54282168	0.00447317	-0.70663047	-0.09365079	-0.34167706
2880	28.79000000	-0.86951989	-0.21241539	0.23611872	-0.71357148	0.09833068	-0.59780336	-0.20105958	-0.79171042	-0.10298125	-0.73997581	-0.41027261	0.02445563	-0.70706158	0.37087220	0.14527891	-0.74017345	0.29896638	0.25178220	-0.61061685	-0.54396274	-0.00083079	-0.71201239	-0.09447281	-0.33858695
2881	28.80000000	-0.87438098	-0.21230161	0.23799551	-0.71653433	0.10848007	-0.60526010	-0.20686994	-0.78317440	-0.12482813	-0.75068996	-0.40451403	0.02262913	-0.70374092	0.37416956	0.14437443	-0.73813601	0.30700500	0.25034144	-0.60585524	-0.55256511	-0.01773192	-0.71403923	-0.09915613	-0.34468916
